# xmcd CD database file
#
# Track frame offsets:
#	150
#	26330
#	52463
#	72460
#	93210
#	99813
#	120628
#	133681
#	147714
#	172614
#	195299
#	225469
#	243959
#	260189
#
# Disc length: 3902 seconds
#
# Revision: 1
# Processed by: cddbd v1.5.2PL0 Copyright (c) Steve Scherf et al.
# Submitted via: CDex 1.51
#
DISCID=be0f3c0e
DTITLE=SHEHAN Steve - AMOK
DYEAR=1998
DGENRE=Jazz
TTITLE0=Wandering man
TTITLE1=Imazighen
TTITLE2=Palimpseste
TTITLE3=Cala Marguerita
TTITLE4=Voix du doute
TTITLE5=El africano
TTITLE6=Promenade aux étangs
TTITLE7=Circumnavigation
TTITLE8=Chant des pistes
TTITLE9=Varada Mudrà
TTITLE10=Jungle quest
TTITLE11=Convictions
TTITLE12=Leaving You
TTITLE13=Sommeil de fièvre
EXTD=YEAR: 1998
EXTT0=
EXTT1=
EXTT2=
EXTT3=
EXTT4=
EXTT5=
EXTT6=
EXTT7=
EXTT8=
EXTT9=
EXTT10=
EXTT11=
EXTT12=
EXTT13=
PLAYORDER=
